<?xml version="1.0" standalone="no"?>
<!DOCTYPE svg PUBLIC "-//W3C//DTD SVG 20010904//EN"
 "http://www.w3.org/TR/2001/REC-SVG-20010904/DTD/svg10.dtd">
<svg version="1.0" xmlns="http://www.w3.org/2000/svg"
 width="700.000000pt" height="700.000000pt" viewBox="0 0 700.000000 700.000000"
 preserveAspectRatio="xMidYMid meet">
<metadata>
Created by potrace 1.11, written by Peter Selinger 2001-2013
</metadata>
<g transform="translate(0.000000,700.000000) scale(0.100000,-0.100000)"
fill="#000000" stroke="none">
<path d="M0 3500 l0 -3500 3500 0 3500 0 0 3500 0 3500 -3500 0 -3500 0 0
-3500z m2358 2884 c311 -64 731 -312 1078 -636 l62 -58 73 68 c377 349 797
592 1112 642 106 17 274 8 352 -19 248 -88 403 -343 450 -741 32 -269 6 -633
-66 -943 -11 -48 -19 -92 -17 -97 2 -6 69 -32 148 -59 600 -201 1000 -472
1158 -786 193 -382 -76 -804 -714 -1123 -146 -73 -334 -149 -474 -193 -58 -18
-106 -33 -108 -35 -2 -1 6 -40 16 -85 91 -385 107 -808 42 -1110 -23 -107 -76
-249 -121 -325 -48 -81 -162 -193 -235 -232 -168 -88 -392 -88 -642 -1 -264
93 -583 297 -870 559 -45 41 -87 77 -92 78 -6 2 -44 -28 -86 -67 -169 -158
-446 -358 -619 -448 -114 -59 -262 -119 -368 -149 -123 -34 -329 -44 -431 -20
-247 58 -418 271 -486 604 -31 155 -43 358 -30 530 13 173 42 373 76 526 13
60 24 112 24 117 0 4 -57 26 -126 48 -497 164 -887 402 -1085 664 -198 262
-211 514 -40 766 186 274 585 521 1121 693 69 22 128 42 131 44 4 2 -2 39 -13
81 -109 450 -116 974 -18 1263 53 155 153 300 254 369 52 36 159 78 228 90 67
12 219 5 316 -15z"/>
<path d="M2070 6120 c-145 -31 -242 -182 -286 -447 -22 -135 -14 -485 15 -663
18 -108 53 -280 67 -331 4 -13 20 -12 137 12 161 33 413 73 602 94 124 14 142
18 155 38 80 120 335 438 462 578 l79 87 -58 55 c-287 274 -647 493 -918 561
-79 20 -199 27 -255 16z"/>
<path d="M4660 6110 c-253 -64 -559 -252 -877 -538 -46 -41 -83 -77 -83 -81 0
-3 32 -42 71 -86 114 -129 267 -320 374 -467 95 -130 102 -137 140 -142 22 -3
101 -12 175 -21 153 -19 444 -67 570 -94 47 -11 88 -16 92 -13 3 4 15 50 27
102 116 543 86 1031 -77 1245 -20 27 -59 63 -86 79 -45 28 -57 31 -150 33 -74
2 -121 -3 -176 -17z"/>
<path d="M3470 5261 c-14 -16 -73 -85 -131 -153 -58 -68 -132 -157 -164 -198
l-57 -75 133 -2 c504 -10 627 -8 619 7 -15 26 -256 323 -317 388 l-58 63 -25
-30z"/>
<path d="M3017 4540 c-65 -4 -120 -9 -121 -11 -2 -2 -42 -62 -88 -134 -153
-236 -278 -452 -432 -747 l-77 -147 67 -132 c122 -245 275 -510 436 -756 l99
-151 137 -8 c165 -10 817 -7 957 3 l100 8 53 80 c144 219 364 599 481 834 l61
121 -51 102 c-116 232 -288 529 -452 785 -78 121 -96 142 -122 147 -49 10
-920 15 -1048 6z m598 -465 c281 -59 482 -324 462 -609 -22 -307 -279 -546
-587 -546 -311 0 -579 268 -580 581 0 155 62 304 174 414 146 145 334 201 531
160z"/>
<path d="M2435 4483 c-37 -5 -336 -58 -422 -74 -35 -7 -63 -18 -63 -24 0 -23
115 -346 171 -478 l31 -76 108 192 c58 106 143 252 188 326 45 74 82 135 82
137 0 5 -52 3 -95 -3z"/>
<path d="M4460 4488 c0 -3 36 -65 81 -138 88 -144 188 -320 255 -444 l42 -79
17 39 c42 97 111 280 150 396 43 127 43 128 22 133 -12 2 -52 11 -89 20 -143
31 -478 83 -478 73z"/>
<path d="M1530 4281 c-256 -85 -496 -195 -660 -303 -125 -83 -284 -241 -329
-327 -83 -159 -34 -312 160 -496 185 -175 482 -337 827 -451 72 -24 134 -44
136 -44 3 0 17 37 32 83 57 174 138 389 216 571 l80 188 -35 77 c-79 170 -197
474 -252 649 -20 66 -33 92 -44 91 -9 0 -68 -18 -131 -38z"/>
<path d="M5280 4198 c-66 -191 -131 -358 -208 -535 l-70 -163 63 -138 c69
-151 170 -405 230 -574 21 -61 43 -108 50 -108 21 0 162 48 299 102 410 161
714 384 815 598 37 78 37 174 -1 250 -81 164 -279 329 -569 472 -141 69 -344
151 -469 188 -40 12 -78 24 -85 26 -8 3 -27 -38 -55 -118z"/>
<path d="M4830 3162 c0 -20 -280 -513 -352 -619 -16 -24 -24 -43 -17 -43 52 0
584 92 595 103 12 12 -201 567 -217 567 -5 0 -9 -3 -9 -8z"/>
<path d="M2134 3123 c-58 -136 -199 -533 -189 -533 1 0 47 -9 101 -20 124 -26
494 -82 494 -75 0 1 -49 83 -109 181 -59 99 -146 249 -191 332 -45 84 -84 152
-86 152 -2 0 -11 -17 -20 -37z"/>
<path d="M4970 2299 c-152 -32 -415 -72 -598 -91 -114 -11 -124 -14 -139 -38
-71 -111 -314 -424 -445 -574 -43 -48 -78 -92 -78 -96 0 -12 130 -130 240
-220 124 -100 320 -230 440 -290 238 -120 470 -157 590 -95 116 60 208 258
240 515 21 172 7 483 -30 680 -35 181 -52 240 -68 239 -9 -1 -78 -15 -152 -30z"/>
<path d="M1837 2193 c-111 -531 -91 -958 53 -1182 74 -114 148 -147 313 -138
133 6 245 39 412 121 198 98 380 221 549 371 43 38 94 84 113 100 l35 30 -100
112 c-118 133 -256 304 -376 465 -98 132 -74 120 -266 138 -160 16 -442 57
-584 86 -65 13 -120 24 -121 24 -1 0 -14 -57 -28 -127z"/>
<path d="M3120 2162 c0 -11 226 -285 342 -416 l44 -49 85 99 c106 124 289 355
289 367 0 2 -171 3 -380 3 -209 0 -380 -2 -380 -4z"/>
</g>
</svg>
